<?xml version="1.0" encoding="iso-8859-1"?>
<!-- Uploaded to: SVG Repo, www.svgrepo.com, Generator: SVG Repo Mixer Tools -->
<svg height="800px" width="800px" version="1.1" id="Layer_1" xmlns="http://www.w3.org/2000/svg" xmlns:xlink="http://www.w3.org/1999/xlink" 
	 viewBox="0 0 512.004 512.004" xml:space="preserve">
<path style="fill:#61ACD2;" d="M432.147,262.734c17.915,0,33.633,9.986,42.545,23.401h23.893V129.181H340.291v-22.415
	c13.415-8.913,23.224-24.63,23.224-42.545c0-27.783-22.648-50.305-50.431-50.305s-50.116,22.522-50.116,50.305
	c0,17.915,8.909,33.633,23.665,42.545v22.413H129.679v156.953h-23.414c-8.913-13.415-24.63-23.401-42.545-23.401
	c-27.783,0-50.305,22.56-50.305,50.343s22.522,50.249,50.305,50.249c17.915,0,33.634-8.776,42.545-23.532h23.414v158.294h156.953
	v-22.982c-14.756-8.913-23.72-24.629-23.72-42.545c0-27.783,22.389-50.305,50.173-50.305s50.486,22.522,50.486,50.305
	c0,17.915-9.865,33.633-23.28,42.545v22.982h158.294V339.792h-23.893c-8.913,14.756-24.63,23.532-42.545,23.532
	c-27.783,0-50.305-22.466-50.305-50.249C381.842,285.292,404.364,262.734,432.147,262.734z"/>
<path d="M432.147,276.147c12.217,0,24.238,6.671,31.372,17.41c2.487,3.743,6.681,5.992,11.174,5.992h23.45
	c7.409,0,13.859-6.007,13.859-13.415V129.181c0-7.408-6.45-13.415-13.859-13.415H353.706v-2.319
	c14.756-12.316,23.224-30.579,23.224-49.225c0-35.135-28.702-63.72-63.846-63.72c-35.123,0-63.531,28.586-63.531,63.72
	c0,19.769,8.909,37.767,23.665,49.533v2.012H129.236c-7.409,0-12.971,6.007-12.971,13.415v143.538h-3.321
	c-12.304-14.587-30.566-23.401-49.224-23.401C28.586,249.319,0,277.92,0,313.076c0,35.105,28.586,63.664,63.72,63.664
	c19.763,0,37.76-8.669,49.534-23.532h3.012v144.879c0,7.408,5.562,13.415,12.971,13.415h156.953c7.409,0,13.859-6.007,13.859-13.415
	v-22.982c0-4.698-2.679-9.054-6.701-11.483c-10.816-6.533-17.129-17.855-17.129-31.063c0-20.341,16.483-36.891,36.813-36.891
	c20.35,0,36.879,16.55,36.879,36.891c0,12.199-6.481,24.22-17.246,31.373c-3.743,2.487-5.783,6.679-5.783,11.173v22.982
	c0,7.408,5.562,13.415,12.971,13.415h158.294c7.409,0,13.859-6.007,13.859-13.415V339.793c0-7.408-6.45-13.415-13.859-13.415h-23.45
	c-4.698,0-9.055,2.458-11.483,6.479c-6.545,10.838-17.867,17.053-31.062,17.053c-20.342,0-36.891-16.523-36.891-36.834
	C395.257,292.714,411.805,276.147,432.147,276.147z M432.147,376.74c19.763,0,37.76-8.669,49.534-23.532h3.491v131.465H353.707
	v-2.887c14.756-12.316,23.224-30.579,23.224-49.225c0-35.135-28.702-63.72-63.846-63.72c-35.123,0-63.531,28.586-63.531,63.72
	c0,19.769,8.909,37.767,23.665,49.533v2.581H143.095V339.795c0-7.408-6.45-13.415-13.859-13.415h-22.971
	c-4.698,0-9.055,2.458-11.483,6.479c-6.545,10.838-17.867,17.053-31.062,17.053c-20.342,0-36.891-16.523-36.891-36.834
	c0-20.362,16.548-36.928,36.891-36.928c12.217,0,24.238,6.671,31.372,17.41c2.487,3.743,6.681,5.992,11.174,5.992h22.971
	c7.409,0,13.859-6.007,13.859-13.415V142.599h143.094c7.409,0,13.859-6.007,13.859-13.415v-22.416c0-4.698-2.679-9.054-6.701-11.483
	c-10.816-6.533-17.129-17.855-17.129-31.063c0-20.342,16.483-36.891,36.813-36.891c20.35,0,36.879,16.548,36.879,36.891
	c0,12.199-6.481,24.22-17.246,31.373c-3.743,2.487-5.783,6.679-5.783,11.173v22.413c0,7.408,5.562,13.415,12.971,13.415h145.323
	v130.123h-3.8c-12.304-14.587-30.566-23.401-49.224-23.401c-35.135,0-63.72,28.602-63.72,63.758
	C368.427,348.182,397.011,376.74,432.147,376.74z"/>
</svg>